<svg width="400" height="400" viewBox="0 0 400 400" fill="none" xmlns="http://www.w3.org/2000/svg">
<path d="M200 0C89.4685 0 0 89.4508 0 200C0 310.531 89.4508 400 200 400C238.834 400 276.889 388.597 309.2 367.562C318.881 361.26 320.994 347.975 313.677 339.036L305.47 329.01C299.284 321.452 288.39 319.601 280.169 324.873C256.387 340.127 228.479 348.387 200 348.387C118.179 348.387 51.6129 281.821 51.6129 200C51.6129 118.179 118.179 51.6129 200 51.6129C280.757 51.6129 348.387 98.0798 348.387 180.645C348.387 211.924 331.377 244.953 301.476 248.14C287.485 247.773 287.839 237.771 290.608 223.927L309.506 126.257C311.817 114.315 302.668 103.226 290.504 103.226H254.229C251.551 103.226 248.966 104.212 246.968 105.996C244.97 107.779 243.699 110.236 243.397 112.898L243.389 112.972C231.536 98.5355 210.769 95.4113 195.025 95.4113C134.88 95.4113 83.871 145.6 83.871 217.556C83.871 270.22 113.536 302.935 161.29 302.935C183.052 302.935 207.556 290.325 221.767 272.022C229.446 299.525 254.519 299.524 278.791 299.524C366.62 299.524 400 241.773 400 180.645C400 70.6879 311.309 0 200 0ZM182.516 245.508C164.573 245.508 153.427 232.909 153.427 212.628C153.427 176.344 178.249 153.976 200.71 153.976C218.687 153.976 229.42 166.267 229.42 186.855C229.42 223.194 202.102 245.508 182.516 245.508Z" fill="white"/>
</svg>
