<svg width="400" height="400" viewBox="0 0 400 400" fill="none" xmlns="http://www.w3.org/2000/svg">
<path d="M133.79 322.079C133.79 323.734 131.935 325.057 129.597 325.057C126.935 325.305 125.081 323.982 125.081 322.079C125.081 320.425 126.935 319.102 129.274 319.102C131.694 318.854 133.79 320.177 133.79 322.079ZM108.71 318.357C108.145 320.012 109.758 321.914 112.177 322.41C114.274 323.237 116.694 322.41 117.177 320.756C117.661 319.102 116.129 317.199 113.71 316.455C111.613 315.876 109.274 316.703 108.71 318.357ZM144.355 316.951C142.016 317.53 140.403 319.102 140.645 321.004C140.887 322.658 142.984 323.734 145.403 323.155C147.742 322.576 149.355 321.004 149.113 319.35C148.871 317.778 146.694 316.703 144.355 316.951ZM197.419 0C85.5645 0 0 87.0954 0 201.817C0 293.544 56.2903 372.037 136.694 399.663C147.016 401.565 150.645 395.031 150.645 389.655C150.645 384.527 150.403 356.239 150.403 338.87C150.403 338.87 93.9516 351.277 82.0968 314.222C82.0968 314.222 72.9032 290.153 59.6774 283.949C59.6774 283.949 41.2097 270.964 60.9677 271.212C60.9677 271.212 81.0484 272.866 92.0968 292.551C109.758 324.478 139.355 315.297 150.887 309.838C152.742 296.604 157.984 287.423 163.79 281.964C118.71 276.836 73.2258 270.136 73.2258 190.568C73.2258 167.822 79.3548 156.408 92.2581 141.851C90.1613 136.474 83.3065 114.308 94.3548 85.6893C111.21 80.3131 150 108.021 150 108.021C166.129 103.39 183.468 100.991 200.645 100.991C217.823 100.991 235.161 103.39 251.29 108.021C251.29 108.021 290.081 80.2304 306.935 85.6893C317.984 114.39 311.129 136.474 309.032 141.851C321.935 156.491 329.839 167.905 329.839 190.568C329.839 270.385 282.339 276.753 237.258 281.964C244.677 288.498 250.968 300.905 250.968 320.342C250.968 348.216 250.726 382.707 250.726 389.489C250.726 394.866 254.435 401.4 264.677 399.498C345.323 372.037 400 293.544 400 201.817C400 87.0954 309.274 0 197.419 0ZM78.3871 285.273C77.3387 286.1 77.5806 288.002 78.9516 289.574C80.2419 290.897 82.0968 291.476 83.1452 290.401C84.1935 289.574 83.9516 287.671 82.5806 286.1C81.2903 284.776 79.4355 284.197 78.3871 285.273ZM69.6774 278.573C69.1129 279.648 69.9194 280.972 71.5323 281.799C72.8226 282.626 74.4355 282.378 75 281.22C75.5645 280.145 74.7581 278.821 73.1452 277.994C71.5323 277.498 70.2419 277.746 69.6774 278.573ZM95.8065 308.018C94.5161 309.094 95 311.575 96.8548 313.147C98.7097 315.049 101.048 315.297 102.097 313.974C103.145 312.898 102.661 310.417 101.048 308.846C99.2742 306.943 96.8548 306.695 95.8065 308.018ZM86.6129 295.86C85.3226 296.687 85.3226 298.837 86.6129 300.74C87.9032 302.642 90.0806 303.469 91.129 302.642C92.4194 301.567 92.4194 299.416 91.129 297.514C90 295.612 87.9032 294.785 86.6129 295.86Z" fill="white"/>
</svg>
