<?xml version="1.0" encoding="UTF-8"?>
<svg version="1.1" xmlns="http://www.w3.org/2000/svg" width="1000" height="500">
<path d="M0 0 C330 0 660 0 1000 0 C1000 165 1000 330 1000 500 C670 500 340 500 0 500 C0 335 0 170 0 0 Z " fill="#191919" transform="translate(0,0)"/>
<path d="M0 0 C10.90376578 -0.09410514 21.8074297 -0.16445765 32.71152401 -0.20724869 C37.77877933 -0.22782161 42.84575018 -0.25555807 47.9128418 -0.30175781 C67.51518587 -0.47546884 87.01785067 -0.62669275 106.50390625 1.765625 C107.78313461 1.92158142 109.06236298 2.07753784 110.38035583 2.23822021 C132.55984304 5.30395121 132.55984304 5.30395121 137.19117737 10.42095947 C148.47848415 29.09558034 143.29881293 60.47501939 138.63867188 80.66259766 C137.27599104 85.6497178 134.86670662 89.75192698 132 94 C131.34644531 95.16789062 131.34644531 95.16789062 130.6796875 96.359375 C128.76601969 99.75342733 127.68433375 101.635022 124.1875 103.5 C123.465625 103.665 122.74375 103.83 122 104 C124.3386208 106.58238583 126.81587795 108.0679228 129.8125 109.8125 C136.23060368 114.35519576 139.09230724 120.54313677 141 128 C141.8962123 133.94584993 141.6155212 139.94768939 141.4375 145.9375 C141.40951112 147.63488875 141.38409232 149.33232159 141.36108398 151.02978516 C141.29286628 155.45842553 141.18589288 159.88523476 141.0682373 164.31280518 C140.97788044 167.87107154 140.90915126 171.42961686 140.84049988 174.98835754 C140.52737757 191.01499921 140.03297046 207.00226605 139 223 C120.9494232 223.61914907 103.79652989 222.0064002 86 219 C85.67916288 214.14634618 85.3675401 209.292168 85.0625 204.4375 C85.01609375 203.70014618 84.9696875 202.96279236 84.921875 202.20309448 C84.2449527 191.32430094 83.78642296 180.45805648 83.5 169.5625 C84.0769661 147.95085086 84.0769661 147.95085086 77.66796875 128.19140625 C75.63095632 126.73639737 73.64740603 125.84287172 71.3125 124.9375 C70.50425781 124.61652344 69.69601563 124.29554688 68.86328125 123.96484375 C65.30626714 122.7662319 61.64146315 121.91036579 58 121 C58.33 153.34 58.66 185.68 59 219 C10.96965955 220.65621864 10.96965955 220.65621864 3 219 C2.99191315 218.40690536 2.98382629 217.81381073 2.97549438 217.20274353 C2.88854863 210.95552334 2.78902194 204.70858828 2.68261719 198.46166992 C2.6446456 196.139128 2.60974119 193.81653361 2.578125 191.49389648 C2.41860535 179.91625933 2.21893236 168.56768809 0.44091797 157.11108398 C-0.22412905 152.41856231 -0.29298324 147.79423874 -0.25 143.0625 C-0.25773438 142.21494141 -0.26546875 141.36738281 -0.2734375 140.49414062 C-0.25786939 135.22044319 0.23407936 130.16795266 1 124.95043945 C2.33490618 114.96022246 2.29000352 105.00785974 2.265625 94.9453125 C2.26697705 92.94863844 2.26892203 90.9519647 2.27142334 88.95529175 C2.27435061 84.79519479 2.27015585 80.63518444 2.26074219 76.47509766 C2.24936419 71.1950952 2.25591217 65.91529655 2.26788712 60.63530159 C2.27518379 56.51869223 2.27278211 52.40212957 2.26763153 48.28551865 C2.26631573 46.34105275 2.26786835 44.39658234 2.27259064 42.45212173 C2.2934749 31.43843909 1.85387765 20.70039657 0.42816162 9.77389526 C0.05324302 6.46929377 -0.08171676 3.32032144 0 0 Z " fill="#FDFDFD" transform="translate(134,129)"/>
<path d="M0 0 C1.89395508 0.09849243 1.89395508 0.09849243 3.82617188 0.19897461 C23.14517056 1.13432209 42.46835549 1.31827977 61.80578613 1.53222656 C66.35232624 1.5833136 70.89881619 1.63853475 75.4453125 1.69335938 C84.29683206 1.79951185 93.1483948 1.90124681 102 2 C102.03425331 2.9460183 102.03425331 2.9460183 102.06919861 3.91114807 C102.30993753 10.54755619 102.55387135 17.1838417 102.79956055 23.82006836 C102.89052926 26.28813798 102.98071614 28.75623656 103.07006836 31.22436523 C103.59026487 46.83337336 103.59026487 46.83337336 104.5078125 62.421875 C105.33479193 73.81698604 105.53323339 85.24900997 105.87638092 96.66661835 C106.064242 102.87818137 106.26055393 109.08948582 106.45703125 115.30078125 C106.47899818 115.99718216 106.50096512 116.69358307 106.52359772 117.41108704 C107.05682894 134.26143728 107.70995572 151.10690052 108.39038086 167.9519043 C108.45193108 169.4947686 108.45193108 169.4947686 108.51472473 171.06880188 C108.59039653 172.96216143 108.66741153 174.85546807 108.74613953 176.748703 C109.09018214 185.36129647 109.03598334 193.74379439 108 202.3125 C107.92394531 203.18583984 107.84789062 204.05917969 107.76953125 204.95898438 C106.97728032 211.29233149 104.98676956 216.56068819 101.11761475 221.65617371 C94.00474315 227.00363862 83.98075299 225.4208301 75.4765625 225.25 C73.24751836 225.24216495 71.01845609 225.23848698 68.78939819 225.23876953 C64.12326509 225.22792818 59.45946392 225.18050394 54.79394531 225.10449219 C48.83311519 225.00835796 42.87463787 224.98202428 36.91311073 224.98059082 C32.31106006 224.97532791 27.70950853 224.94349641 23.10764694 224.90270996 C20.91099388 224.88436805 18.71428578 224.87167141 16.51756668 224.86486816 C13.43737264 224.84919537 10.35943396 224.80038032 7.27978516 224.7421875 C6.38388168 224.74288239 5.48797821 224.74357727 4.56492615 224.74429321 C-2.13453433 224.56525028 -7.37735983 222.6701892 -13 219 C-15.5078125 216.08984375 -15.5078125 216.08984375 -17.125 212.9375 C-17.68445313 211.91527344 -18.24390625 210.89304687 -18.8203125 209.83984375 C-22.2958492 200.77154667 -19.79037852 189.13006497 -19.2020874 179.5892334 C-18.08693853 161.40065299 -17.44509351 143.21626592 -17 125 C-9.3784376 124.17603626 -1.86991863 123.86337946 5.79296875 123.90234375 C6.86501053 123.9037587 7.93705231 123.90517365 9.0415802 123.90663147 C12.42358338 123.91217298 15.80551726 123.92471413 19.1875 123.9375 C21.49804591 123.94252257 23.80859287 123.94708415 26.11914062 123.95117188 C31.74611689 123.96212316 37.37305349 123.97880179 43 124 C43.00586624 124.73471527 43.01173248 125.46943054 43.01777649 126.22640991 C43.07562454 133.14257702 43.14765539 140.05846577 43.23571491 146.97430992 C43.28048727 150.53005086 43.31972762 154.08567541 43.34643555 157.64160156 C43.37736438 161.7275115 43.43215504 165.81279547 43.48828125 169.8984375 C43.49467117 171.17866791 43.5010611 172.45889832 43.50764465 173.77792358 C43.53733589 175.54953354 43.53733589 175.54953354 43.56762695 177.35693359 C43.58428154 178.92246475 43.58428154 178.92246475 43.60127258 180.5196228 C43.79864265 181.74740952 43.79864265 181.74740952 44 183 C48.21507101 185.81004734 52.09775222 185.53055954 57.06567383 185.82568359 C58.03400146 185.88320801 59.0023291 185.94073242 60 186 C59.97824707 184.72390869 59.95649414 183.44781738 59.93408203 182.13305664 C59.71089115 161.91372184 60.68315995 141.74631015 61.59912109 121.55297852 C61.8301836 116.45840661 62.0520347 111.36348224 62.27134323 106.26839256 C64.00932431 66.04205853 64.00932431 66.04205853 66 46 C65.41856232 46.07078262 64.83712463 46.14156525 64.23806763 46.2144928 C52.0173931 47.6474205 39.84634922 46.88740297 27.59570312 46.20043945 C25.10831784 46.06156863 22.62062202 45.92985536 20.1328125 45.79882812 C18.52862273 45.71136014 16.92445515 45.62348417 15.3203125 45.53515625 C14.58789337 45.49656998 13.85547424 45.4579837 13.1008606 45.41822815 C8.67891034 45.16513803 4.37040083 44.68424021 0 44 C-0.33968421 40.18803848 -0.67057595 36.3753608 -1 32.5625 C-1.09539062 31.49322266 -1.19078125 30.42394531 -1.2890625 29.32226562 C-1.9961926 21.06399625 -2.53514218 13.40281073 -0.98828125 5.22485352 C-0.80434814 4.24364029 -0.62041504 3.26242706 -0.4309082 2.2514801 C-0.2887085 1.50849167 -0.14650879 0.76550323 0 0 Z " fill="#FDFDFD" transform="translate(311,127)"/>
<path d="M0 0 C39.40254075 -0.53257749 39.40254075 -0.53257749 47.125 5.25 C52.99429515 11.30544817 54.94065811 19.19870127 55.04296875 27.4765625 C54.82154168 30.68162548 54.45539717 33.82049974 54 37 C53.80820951 38.77037379 53.62016925 40.54116184 53.4375 42.3125 C53.293125 43.529375 53.14875 44.74625 53 46 C41.46119754 49.48600742 31.01460384 50.5243533 19 50.25 C17.43491926 50.2298599 15.86981284 50.21162268 14.3046875 50.1953125 C10.5358027 50.15201189 6.76820126 50.08342407 3 50 C2.98541748 49.2251123 2.97083496 48.45022461 2.95581055 47.65185547 C2.8728816 29.05021011 2.8728816 29.05021011 -0.4765625 10.859375 C-1.18270535 7.00193793 -0.62217252 3.86576525 0 0 Z " fill="#1B1B1B" transform="translate(165,165)"/>
<path d="M0 0 C17 0 17 0 22 3 C23.22691067 5.45382134 23.20175931 7.19984103 23.25 9.9375 C23.27578125 10.81277344 23.3015625 11.68804687 23.328125 12.58984375 C22.94290357 15.4193869 22.19305243 16.25132925 20 18 C20.49113281 18.33644531 20.98226562 18.67289063 21.48828125 19.01953125 C23.77280406 22.01243323 23.318576 25.08795135 23.1875 28.6875 C23.16719727 29.7403418 23.16719727 29.7403418 23.14648438 30.81445312 C23.11120182 32.54329829 23.05739583 34.27174765 23 36 C20.03 36 17.06 36 14 36 C14 31.05 14 26.1 14 21 C12.68 20.67 11.36 20.34 10 20 C10 25.28 10 30.56 10 36 C6.7 36 3.4 36 0 36 C0 24.12 0 12.24 0 0 Z " fill="#ECECEC" transform="translate(829,226)"/>
<path d="M0 0 C3.238125 -0.061875 6.47625 -0.12375 9.8125 -0.1875 C11.33774292 -0.22846802 11.33774292 -0.22846802 12.89379883 -0.27026367 C13.69841553 -0.27775635 14.50303223 -0.28524902 15.33203125 -0.29296875 C16.56530151 -0.31653442 16.56530151 -0.31653442 17.82348633 -0.34057617 C20 0 20 0 21.7722168 1.31518555 C23.81877157 4.12355192 23.28111334 6.62663996 23 10 C22.45550483 12.39670949 21.76452043 14.65865617 21 17 C21.33 17.33 21.66 17.66 22 18 C22.07325168 20.86267567 22.09238205 23.700719 22.0625 26.5625 C22.05798828 27.36880859 22.05347656 28.17511719 22.04882812 29.00585938 C22.03700518 31.00393756 22.01906914 33.00197783 22 35 C19.03 35 16.06 35 13 35 C13 30.05 13 25.1 13 20 C11.68 19.67 10.36 19.34 9 19 C9 24.28 9 29.56 9 35 C6.03 35 3.06 35 0 35 C0 23.45 0 11.9 0 0 Z " fill="#F5F5F5" transform="translate(502,227)"/>
<path d="M0 0 C2.64 0 5.28 0 8 0 C10.42393534 6.92552955 12.27806003 13.8662487 14 21 C14 14.07 14 7.14 14 0 C16.64 0 19.28 0 22 0 C22 11.55 22 23.1 22 35 C18.04 35 14.08 35 10 35 C9.01 28.4 8.02 21.8 7 15 C6.67 21.6 6.34 28.2 6 35 C4.02 35 2.04 35 0 35 C0 23.45 0 11.9 0 0 Z " fill="#F8F8F8" transform="translate(691,227)"/>
<path d="M0 0 C2.97 0 5.94 0 9 0 C10.65 6.27 12.3 12.54 14 19 C14 12.73 14 6.46 14 0 C16.97 0 19.94 0 23 0 C22.67 11.55 22.34 23.1 22 35 C18.37 35 14.74 35 11 35 C8.71479849 28.14439546 7.95347451 21.15105884 7 14 C6.67 20.93 6.34 27.86 6 35 C4.02 35 2.04 35 0 35 C0 23.45 0 11.9 0 0 Z " fill="#F8F8F8" transform="translate(664,227)"/>
<path d="M0 0 C2.97 0 5.94 0 9 0 C10.65 6.27 12.3 12.54 14 19 C14 12.73 14 6.46 14 0 C16.97 0 19.94 0 23 0 C22.67 11.55 22.34 23.1 22 35 C18.37 35 14.74 35 11 35 C9.43614918 33.43614918 9.55876578 31.6888591 9.24609375 29.52734375 C9.1267749 28.71773193 9.00745605 27.90812012 8.88452148 27.07397461 C8.73700439 26.03893799 8.5894873 25.00390137 8.4375 23.9375 C7.963125 20.658125 7.48875 17.37875 7 14 C6.67 20.93 6.34 27.86 6 35 C4.02 35 2.04 35 0 35 C0 23.45 0 11.9 0 0 Z " fill="#F8F8F8" transform="translate(575,227)"/>
<path d="M0 0 C5.28 0 10.56 0 16 0 C16.33918345 3.77038746 16.67148011 7.54118046 17 11.3125 C17.09539063 12.36501953 17.19078125 13.41753906 17.2890625 14.50195312 C17.88022877 21.36370447 18.09144794 28.11282734 18 35 C14.7 35 11.4 35 8 35 C8 31.37 8 27.74 8 24 C6.02 24 4.04 24 2 24 C1.67 27.63 1.34 31.26 1 35 C-0.98 35 -2.96 35 -5 35 C-4.66592689 26.44081654 -4.00957191 18.06533376 -2.5 9.625 C-2.36940186 8.89418213 -2.23880371 8.16336426 -2.10424805 7.41040039 C-1.14580124 2.29160249 -1.14580124 2.29160249 0 0 Z " fill="#F7F7F7" transform="translate(859,227)"/>
<path d="M0 0 C5.61 0 11.22 0 17 0 C17.9193113 7.74537867 18.12141649 15.3298951 18.0625 23.125 C18.05798828 24.27226562 18.05347656 25.41953125 18.04882812 26.6015625 C18.03716339 29.40109813 18.02079614 32.20051986 18 35 C15.03 35 12.06 35 9 35 C9 31.37 9 27.74 9 24 C7.02 24 5.04 24 3 24 C2.67 27.63 2.34 31.26 2 35 C0.02 35 -1.96 35 -4 35 C-3.59466792 23.04969201 -2.28911442 11.74415224 0 0 Z " fill="#F9F9F9" transform="translate(554,227)"/>
<path d="M0 0 C5.61 0 11.22 0 17 0 C17.74622114 4.47732683 18.17724232 8.43668065 18.31640625 12.9296875 C18.35830078 14.21875 18.40019531 15.5078125 18.44335938 16.8359375 C18.48316028 18.18228909 18.52287273 19.52864329 18.5625 20.875 C18.60575183 22.24480333 18.64936812 23.61459521 18.69335938 24.984375 C18.79915522 28.32282157 18.90124372 31.661339 19 35 C15.7 35 12.4 35 9 35 C9 31.37 9 27.74 9 24 C7.02 24 5.04 24 3 24 C3.020625 25.0725 3.04125 26.145 3.0625 27.25 C3.0142016 30.14790424 2.86844115 32.28612141 2 35 C0.02 35 -1.96 35 -4 35 C-3.01696789 23.26209087 -1.98343573 11.61726643 0 0 Z " fill="#F6F6F6" transform="translate(735,227)"/>
<path d="M0 0 C5.61 0 11.22 0 17 0 C17.93566518 11.69581477 18.10717956 23.26979248 18 35 C15.03 35 12.06 35 9 35 C9 31.37 9 27.74 9 24 C7.02 24 5.04 24 3 24 C2.67 27.63 2.34 31.26 2 35 C0.02 35 -1.96 35 -4 35 C-3.59466792 23.04969201 -2.28911442 11.74415224 0 0 Z " fill="#FAFAFA" transform="translate(643,227)"/>
<path d="M0 0 C3.27036728 -0.14510162 6.53991007 -0.23399373 9.8125 -0.3125 C11.2056543 -0.3753418 11.2056543 -0.3753418 12.62695312 -0.43945312 C15.17156959 -0.48538483 17.49661158 -0.46160546 20 0 C23.0879557 3.17928156 23.41149677 6.16905007 23.375 10.5 C23.25459587 14.75427911 22.95039963 17.72177819 20 21 C17.24921116 21.91692961 15.64051087 22.10886083 12.8125 22.0625 C10.9253125 22.0315625 10.9253125 22.0315625 9 22 C9.33 26.29 9.66 30.58 10 35 C7.03 35 4.06 35 1 35 C-0.02540318 27.45077186 -0.11725965 20.04909157 -0.0625 12.4375 C-0.05798828 11.23802734 -0.05347656 10.03855469 -0.04882812 8.80273438 C-0.03713769 5.86843641 -0.02075138 2.93424551 0 0 Z " fill="#F2F2F2" transform="translate(780,227)"/>
<path d="M0 0 C1.14210938 -0.01417969 2.28421875 -0.02835938 3.4609375 -0.04296875 C6.625 0.1875 6.625 0.1875 10.625 2.1875 C10.625 5.4875 10.625 8.7875 10.625 12.1875 C7.985 12.1875 5.345 12.1875 2.625 12.1875 C2.625 10.5375 2.625 8.8875 2.625 7.1875 C1.305 7.1875 -0.015 7.1875 -1.375 7.1875 C-1.375 10.1575 -1.375 13.1275 -1.375 16.1875 C2.915 16.1875 7.205 16.1875 11.625 16.1875 C11.92932341 29.72989191 11.92932341 29.72989191 9.625 35.1875 C6.5739365 36.20452117 4.38300939 36.35332083 1.1875 36.375 C-0.23369141 36.39626953 -0.23369141 36.39626953 -1.68359375 36.41796875 C-4.47155459 36.1792319 -6.07507091 35.76444455 -8.375 34.1875 C-9.65817892 30.33796324 -9.44143637 27.24011865 -9.375 23.1875 C-6.735 23.1875 -4.095 23.1875 -1.375 23.1875 C-1.375 24.8375 -1.375 26.4875 -1.375 28.1875 C0.275 28.1875 1.925 28.1875 3.625 28.1875 C3.625 25.5475 3.625 22.9075 3.625 20.1875 C-0.335 20.1875 -4.295 20.1875 -8.375 20.1875 C-8.375 13.9175 -8.375 7.6475 -8.375 1.1875 C-5.5555932 -0.2222034 -3.14232774 0.01765353 0 0 Z " fill="#F1F1F1" transform="translate(765.375,225.8125)"/>
<path d="M0 0 C6.6 0 13.2 0 20 0 C20 2.97 20 5.94 20 9 C16.04 9 12.08 9 8 9 C8 10.98 8 12.96 8 15 C11.3 15 14.6 15 18 15 C18 16.65 18 18.3 18 20 C15.03 20 12.06 20 9 20 C9 22.31 9 24.62 9 27 C12.96 27 16.92 27 21 27 C21 29.64 21 32.28 21 35 C14.07 35 7.14 35 0 35 C0 23.45 0 11.9 0 0 Z " fill="#F5F5F5" transform="translate(806,227)"/>
<path d="M0 0 C5.28 0 10.56 0 16 0 C16.85640563 7.92175212 17.10956817 15.7233885 17.125 23.6875 C17.12951172 24.68023926 17.13402344 25.67297852 17.13867188 26.69580078 C17.13673828 27.62505371 17.13480469 28.55430664 17.1328125 29.51171875 C17.13168457 30.35178467 17.13055664 31.19185059 17.12939453 32.05737305 C17 34 17 34 16 35 C13.17583618 35.12663091 10.38705207 35.18520548 7.5625 35.1875 C6.77294922 35.19974609 5.98339844 35.21199219 5.16992188 35.22460938 C3.11192565 35.22987279 1.05437991 35.12206285 -1 35 C-3 33 -3 33 -3.1953125 29.7421875 C-3.17210937 28.46601563 -3.14890625 27.18984375 -3.125 25.875 C-3.10695313 24.59367187 -3.08890625 23.31234375 -3.0703125 21.9921875 C-3.04710937 21.00476563 -3.02390625 20.01734375 -3 19 C0.3 19 3.6 19 7 19 C7 22.3 7 25.6 7 29 C7.99 29 8.98 29 10 29 C10 21.74 10 14.48 10 7 C6.7 7 3.4 7 0 7 C0 4.69 0 2.38 0 0 Z " fill="#F8F8F8" transform="translate(619,227)"/>
<path d="M0 0 C3.3 0 6.6 0 10 0 C8.55166551 5.06917072 7.10115669 9.84770024 4.875 14.625 C2.0205699 21.42333734 2.18038601 28.730444 2 36 C-1.63 36 -5.26 36 -9 36 C-8.94199219 34.98421875 -8.88398437 33.9684375 -8.82421875 32.921875 C-8.4482475 23.34628437 -9.77302959 16.73220533 -14 8 C-14.78756257 5.67688831 -15.40478129 3.38087483 -16 1 C-13.03 1 -10.06 1 -7 1 C-5.68 6.28 -4.36 11.56 -3 17 C-2.01 11.39 -1.02 5.78 0 0 Z " fill="#F7F7F7" transform="translate(542,226)"/>
<path d="M0 0 C2.875 -0.125 2.875 -0.125 6 0 C8 2 8 2 8.23046875 3.91015625 C8.11111111 9.88888889 8.11111111 9.88888889 7 11 C4.66702567 11.04092937 2.33294775 11.04241723 0 11 C0 7.37 0 3.74 0 0 Z " fill="#232323" transform="translate(786,234)"/>
<path d="M0 0 C2.475 0.495 2.475 0.495 5 1 C6.28317892 4.84953676 6.06643637 7.94738135 6 12 C4.02 12 2.04 12 0 12 C0 8.04 0 4.08 0 0 Z " fill="#303030" transform="translate(646,234)"/>
<path d="M0 0 C2.475 0.495 2.475 0.495 5 1 C6.28317892 4.84953676 6.06643637 7.94738135 6 12 C4.02 12 2.04 12 0 12 C0 8.04 0 4.08 0 0 Z " fill="#2F2F2F" transform="translate(557,234)"/>
<path d="M0 0 C1.32 0 2.64 0 4 0 C4.96070434 2.88211302 5.10581883 4.69850044 5.0625 7.6875 C5.05347656 8.49574219 5.04445313 9.30398437 5.03515625 10.13671875 C5.02355469 10.75160156 5.01195312 11.36648437 5 12 C3.02 12 1.04 12 -1 12 C-0.67 8.04 -0.34 4.08 0 0 Z " fill="#2C2C2C" transform="translate(862,234)"/>
<path d="M0 0 C6.875 0.875 6.875 0.875 8 2 C8.04080783 3.99958364 8.04254356 6.00045254 8 8 C5.36 8 2.72 8 0 8 C0 5.36 0 2.72 0 0 Z " fill="#252525" transform="translate(507,232)"/>
<path d="M0 0 C1.32 0 2.64 0 4 0 C4.96070434 2.88211302 5.10581883 4.69850044 5.0625 7.6875 C5.05347656 8.49574219 5.04445313 9.30398437 5.03515625 10.13671875 C5.02355469 10.75160156 5.01195312 11.36648437 5 12 C3.35 12 1.7 12 0 12 C0 8.04 0 4.08 0 0 Z " fill="#232323" transform="translate(739,234)"/>
<path d="M0 0 C2.475 0.495 2.475 0.495 5 1 C5 3.97 5 6.94 5 10 C3.35 10 1.7 10 0 10 C0 6.7 0 3.4 0 0 Z " fill="#1C1C1C" transform="translate(836,231)"/>
</svg>
