<?xml version="1.0" encoding="UTF-8"?>
<svg version="1.1" xmlns="http://www.w3.org/2000/svg" width="500" height="500">
<path d="M0 0 C165 0 330 0 500 0 C500 165 500 330 500 500 C335 500 170 500 0 500 C0 335 0 170 0 0 Z " fill="#191919" transform="translate(0,0)"/>
<path d="M0 0 C14.32047448 -0.11855414 28.64086944 -0.20547075 42.96173954 -0.25906086 C49.61619677 -0.28448166 56.27028008 -0.31957861 62.92456055 -0.37719727 C97.81428727 -0.67115714 131.52343626 0.12737497 165.73182678 7.39482117 C168.79746281 7.9624955 171.76865274 8.22630263 174.875 8.4375 C179.76145776 9.87856614 181.5758334 12.81082896 183.91064453 17.08862305 C189.56676373 28.90233883 190.10656408 40.19994928 189.98193359 53.10839844 C190.00290547 56.46503176 190.28723179 59.74894314 190.61206055 63.08691406 C191.56334044 73.35285784 189.71078221 82.69672962 187.48583984 92.70019531 C186.85228713 95.69922372 186.42093134 98.71466022 186 101.75 C185.14009741 106.990958 183.45719897 111.31118099 181 116 C180.55527344 116.87398438 180.11054688 117.74796875 179.65234375 118.6484375 C177.1607222 123.39248493 174.48052367 128.00519673 171.5625 132.5 C171.04816406 133.2940625 170.53382813 134.088125 170.00390625 134.90625 C167.28468099 137.74738984 164.6722751 138.63438637 161 140 C161.78648926 140.43699219 161.78648926 140.43699219 162.58886719 140.8828125 C164.98910584 142.23314579 167.3690412 143.6159764 169.75 145 C170.575 145.45761719 171.4 145.91523438 172.25 146.38671875 C178.10754316 149.83511109 180.60488726 152.71878583 183 159 C183.43803955 159.87188965 183.8760791 160.7437793 184.32739258 161.64208984 C189.17653064 172.09043387 188.63256903 182.32544997 188.4375 193.625 C188.41847099 195.79010818 188.4009396 197.95522994 188.38476562 200.12036133 C188.07085844 232.75149145 186.98896889 265.38370277 186 298 C169.91464144 298.29577682 154.18857736 297.91936833 138.21923828 295.91870117 C135.28462534 295.55118183 132.34791203 295.20664924 129.41015625 294.86523438 C127.53110084 294.64187631 125.65218754 294.41731848 123.7734375 294.19140625 C122.90085297 294.08719864 122.02826843 293.98299103 121.12924194 293.87562561 C115.11803733 293.11803733 115.11803733 293.11803733 114 292 C113.82152216 289.76611704 113.71130554 287.52676685 113.62695312 285.28735352 C113.59915268 284.58460297 113.57135223 283.88185242 113.54270935 283.1578064 C113.45110553 280.81498812 113.36624468 278.47197285 113.28125 276.12890625 C113.21827447 274.4919205 113.15483155 272.85495267 113.09094238 271.21800232 C112.92282452 266.88327723 112.7601902 262.54836419 112.59893799 258.21337891 C112.34226346 251.33621173 112.07743291 244.45935484 111.81248474 237.58250237 C111.72164184 235.20460297 111.63313663 232.82662631 111.54504395 230.44862366 C111.22642435 221.97771449 110.8346122 213.5149734 110.34133911 205.05230045 C110.09689349 200.85475949 109.89957216 196.65883881 109.74609375 192.45703125 C109.64504203 190.5754226 109.54224358 188.69390675 109.4375 186.8125 C109.40172852 185.37680664 109.40172852 185.37680664 109.36523438 183.91210938 C109.02586704 178.62454737 108.29145978 175.6483722 104.3125 172 C100.92420865 169.44578463 97.57941417 167.60670938 93.5625 166.1875 C92.53253906 165.80980469 91.50257813 165.43210937 90.44140625 165.04296875 C86.35554692 163.80468902 82.16771095 162.92615799 78 162 C78.33 205.23 78.66 248.46 79 293 C12.83250557 294.37848947 12.83250557 294.37848947 3 292 C2.99191315 291.12986267 2.98382629 290.25972534 2.97549438 289.36322021 C2.89679991 281.06943078 2.80930037 272.77578747 2.71247292 264.48218918 C2.66301614 260.22074229 2.61669256 255.95931436 2.578125 251.69775391 C2.5177254 228.7032863 2.5177254 228.7032863 0.71855927 205.80122566 C-0.85947101 192.48905228 -0.03188535 179.44712607 1.68876266 166.20141983 C4.59552568 143.25704423 4.54075098 120.37848424 4.39123535 97.28771973 C4.36944029 93.04194371 4.37038974 88.79629263 4.37125587 84.55047035 C4.41251858 53.71725125 4.41251858 53.71725125 2 23 C1.85227646 21.71761948 1.85227646 21.71761948 1.7015686 20.40933228 C1.28007391 16.75619107 0.84034069 13.10785674 0.3671875 9.4609375 C0.02864059 6.26995283 -0.02641776 3.20441832 0 0 Z " fill="#E4E4E4" transform="translate(58,105)"/>
<path d="M0 0 C6.25698078 -0.11967272 12.39505541 0.14461642 18.62825012 0.67959595 C41.02754642 2.55950102 63.49422386 2.44714522 85.95678711 2.60089111 C91.61642885 2.64155242 97.27597978 2.69235416 102.93554688 2.7421875 C113.95696657 2.83779597 124.97843873 2.92255148 136 3 C136.05304543 4.47219749 136.05304543 4.47219749 136.10716248 5.97413635 C136.44294182 15.2848726 136.78114583 24.59551813 137.12164211 33.90608311 C137.29656156 38.69117132 137.47066655 43.4762861 137.64282227 48.26147461 C137.80941244 52.89109023 137.97825684 57.52061894 138.14857674 62.1500988 C138.21273931 63.90443014 138.2761291 65.65878994 138.33868217 67.4131794 C138.67447392 76.81599154 139.11586631 86.19041105 139.77705383 95.57649231 C140.11785296 100.80972163 140.28194413 106.04346616 140.4296875 111.28515625 C140.50206051 113.65934414 140.57449178 116.03353025 140.64697266 118.40771484 C140.70247284 120.27372345 140.70247284 120.27372345 140.75909424 122.1774292 C140.96224871 128.98700878 141.17427439 135.79629741 141.390625 142.60546875 C141.4249935 143.68839832 141.4249935 143.68839832 141.4600563 144.79320526 C141.8546822 157.15193584 142.31311332 169.50774279 142.796875 181.86328125 C142.83107166 182.73857294 142.86526833 183.61386463 142.90050125 184.51568031 C143.23942006 193.18104399 143.58265452 201.84622108 143.93413544 210.51108456 C144.06528804 213.75838928 144.19397619 217.00578901 144.32221222 220.25321007 C144.382044 221.75240515 144.44301662 223.25155527 144.50530243 224.75065041 C146.78209972 279.5660929 146.78209972 279.5660929 134.375 293.59375 C133.199375 294.78484375 133.199375 294.78484375 132 296 C131.56316517 296.53635543 131.12633034 297.07271086 130.67625809 297.62531948 C128.35020666 299.53288826 126.79139783 299.38510393 123.80487061 299.40113831 C122.72858398 299.41393326 121.65229736 299.42672821 120.543396 299.43991089 C118.77152924 299.43787155 118.77152924 299.43787155 116.96386719 299.43579102 C115.71955933 299.44586685 114.47525146 299.45594269 113.1932373 299.46632385 C109.77499394 299.48997879 106.35729738 299.49985945 102.93900967 299.50177121 C100.79791113 299.50390522 98.65686959 299.51031347 96.51578522 299.51826286 C89.02904135 299.5460476 81.54245776 299.558267 74.05566406 299.5559082 C67.10794216 299.55411419 60.1609254 299.58559691 53.21338153 299.63313919 C47.23008826 299.67260374 41.24702273 299.6884496 35.26360059 299.68654197 C31.69872375 299.6857827 28.1344708 299.69401162 24.56972504 299.72607613 C-8.6365478 300.00386964 -8.6365478 300.00386964 -18.11633301 290.98701477 C-19.75019397 288.98976161 -20.83424439 287.07979984 -21.9375 284.75 C-22.5394519 283.55503906 -22.5394519 283.55503906 -23.15356445 282.3359375 C-26.70725779 274.63816572 -26.87634398 268.14595577 -26.1953125 259.83642578 C-25.9764398 256.65784695 -25.90064375 253.49419933 -25.84375 250.30859375 C-25.31729656 222.17939324 -23.55534862 194.0866328 -22 166 C-5.60538106 164.91639143 10.76342037 164.87688447 27.18701172 164.93133545 C30.67414729 164.94175559 34.16129069 164.94617216 37.6484375 164.95117188 C44.43231008 164.96174399 51.2161528 164.97870086 58 165 C58.00142502 165.98305618 58.00285004 166.96611237 58.00431824 167.97895813 C58.0209739 177.23470546 58.0637032 186.49001234 58.13209057 195.74552631 C58.16640977 200.50416198 58.19147817 205.26247494 58.19555664 210.02124023 C58.19982909 214.61214197 58.22820344 219.20231513 58.27343178 223.79298973 C58.28644067 225.54606066 58.29070249 227.29921863 58.28615379 229.05233192 C58.28127153 231.50484919 58.30723027 233.95521734 58.34057617 236.4074707 C58.32763771 237.49935448 58.32763771 237.49935448 58.31443787 238.61329651 C58.31063744 240.87803837 58.31063744 240.87803837 59 244 C62.91276377 247.29661761 66.86377962 247.52175338 71.8125 247.6875 C72.50537109 247.72166016 73.19824219 247.75582031 73.91210938 247.79101562 C75.60752849 247.87286344 77.30373458 247.93812365 79 248 C79.02061493 247.41373337 79.04122986 246.82746674 79.06246948 246.22343445 C79.28529944 239.90830882 79.51362466 233.59339621 79.74462891 227.27856445 C79.82926634 224.94723122 79.91267179 222.61585282 79.99462891 220.28442383 C80.483839 206.39629289 81.11495622 192.52413914 81.94140625 178.65234375 C82.7674648 164.77056697 83.43796616 150.88564925 84.03515625 136.9921875 C84.07756943 136.00784792 84.1199826 135.02350834 84.16368103 134.00934029 C84.51119886 125.92707856 84.85310779 117.8445816 85.19366455 109.76202393 C85.45110373 103.65443138 85.71096568 97.54695206 85.97427177 91.43960953 C86.09463748 88.62527115 86.21145833 85.8108005 86.32814026 82.99630737 C86.40224786 81.27080493 86.47653325 79.54531011 86.55102539 77.81982422 C86.59702377 76.67446449 86.59702377 76.67446449 86.64395142 75.50596619 C86.87385068 70.30241982 87.38184652 65.17215126 88 60 C87.3504837 60.15038727 86.70096741 60.30077454 86.0317688 60.45571899 C79.48699001 61.938016 73.25811229 62.34633989 66.5625 62.3125 C65.44447998 62.31048584 64.32645996 62.30847168 63.17456055 62.30639648 C47.83489228 62.13691421 32.52975866 60.90236754 17.23828125 59.75390625 C16.42462097 59.69342102 15.61096069 59.63293579 14.77264404 59.57061768 C9.82481963 59.18734185 4.91991168 58.65100479 0 58 C-0.05534912 57.30438965 -0.11069824 56.6087793 -0.16772461 55.89208984 C-0.42166855 52.71950822 -0.67954821 49.54725817 -0.9375 46.375 C-1.02451172 45.28058594 -1.11152344 44.18617188 -1.20117188 43.05859375 C-1.28818359 41.99511719 -1.37519531 40.93164062 -1.46484375 39.8359375 C-1.543396 38.86188965 -1.62194824 37.8878418 -1.70288086 36.88427734 C-2.01089485 33.89423845 -2.49315812 30.9620428 -3 28 C-3.7390261 18.36423665 -1.99656975 9.36486289 0 0 Z " fill="#E5E5E5" transform="translate(294,103)"/>
<path d="M0 0 C52.10998192 -0.85678301 52.10998192 -0.85678301 62.5 8.1875 C71.01382858 16.64773316 72.25611712 27.60594808 72.375 39.125 C72.18450942 46.52482622 71.27547199 53.71158866 70 61 C55.665833 67.03192431 41.34685683 66.92463691 26 67 C24.26097412 67.01256836 24.26097412 67.01256836 22.48681641 67.02539062 C15.99065464 67.06638175 9.49599206 67.06183941 3 67 C2.98598145 65.5291394 2.98598145 65.5291394 2.97167969 64.02856445 C2.76653746 38.78720251 2.76653746 38.78720251 -1.16015625 13.9140625 C-2.3746508 8.6625329 -2.59097224 4.81703691 0 0 Z " fill="#1B1B1B" transform="translate(100,153)"/>
<path d="M0 0 C0.33 0 0.66 0 1 0 C1 12.54 1 25.08 1 38 C-11.54 38 -24.08 38 -37 38 C-34.2663214 36.6331607 -31.62113418 35.41642731 -28.8125 34.25 C-14.62215609 27.89923953 -6.59220033 18.45458008 -1 4 C-0.63361251 2.67536832 -0.28329843 1.34485348 0 0 Z " fill="#000000" transform="translate(499,462)"/>
<path d="M0 0 C1.3668393 2.7336786 2.58357269 5.37886582 3.75 8.1875 C10.21399603 22.6308611 19.5895133 29.94257989 34 36 C35.32 36.66 36.64 37.32 38 38 C25.46 38 12.92 38 0 38 C0 25.46 0 12.92 0 0 Z " fill="#000000" transform="translate(0,462)"/>
<path d="M0 0 C12.54 0 25.08 0 38 0 C38 12.54 38 25.08 38 38 C36.6331607 35.2663214 35.41642731 32.62113418 34.25 29.8125 C27.78600397 15.3691389 18.4104867 8.05742011 4 2 C2.68 1.34 1.36 0.68 0 0 Z " fill="#000000" transform="translate(462,0)"/>
<path d="M0 0 C12.54 0 25.08 0 38 0 C35.2663214 1.3668393 32.62113418 2.58357269 29.8125 3.75 C15.3691389 10.21399603 8.05742011 19.5895133 2 34 C1.34 35.32 0.68 36.64 0 38 C0 25.46 0 12.92 0 0 Z " fill="#000000" transform="translate(0,0)"/>
</svg>
