<svg width="390" height="390" viewBox="0 0 390 390" fill="none" xmlns="http://www.w3.org/2000/svg">
<path d="M87.2973 390H6.44196V129.617H87.2973V390ZM46.8261 94.0983C20.9712 94.0983 0 72.6826 0 46.8272C1.85058e-07 34.4078 4.93345 22.4972 13.7151 13.7154C22.4967 4.93356 34.4071 0 46.8261 0C59.2452 0 71.1556 4.93356 79.9372 13.7154C88.7188 22.4972 93.6522 34.4078 93.6522 46.8272C93.6522 72.6826 72.6723 94.0983 46.8261 94.0983ZM389.913 390H309.232V263.247C309.232 233.039 308.622 194.299 267.194 194.299C225.155 194.299 218.713 227.119 218.713 261.071V390H137.945V129.617H215.492V165.136H216.624C227.419 144.678 253.787 123.088 293.127 123.088C374.957 123.088 390 176.975 390 246.968V390H389.913Z" fill="white"/>
</svg>
